<?xml version="1.0" encoding="utf-8"?>
<!-- Generator: Adobe Illustrator 24.0.0, SVG Export Plug-In . SVG Version: 6.00 Build 0)  -->
<svg version="1.1" xmlns="http://www.w3.org/2000/svg" xmlns:xlink="http://www.w3.org/1999/xlink" x="0px" y="0px"
	 viewBox="0 0 100 76.2" style="enable-background:new 0 0 100 76.2;" xml:space="preserve">
<style type="text/css">
	.st0{fill:#FFFFFF;}
</style>
<g id="Calque_2">
</g>
<g id="Calque_1">
	<g>
		<path class="st0" d="M43.3,1.6L19.5,19.8H8c-3,0-5.5,2.4-5.5,5.5V51c0,3,2.4,5.5,5.5,5.5h11.6l23.7,18.2c4.1,3.2,10.2,0.2,10.2-5
			V6.6C53.4,1.3,47.4-1.6,43.3,1.6z"/>
		<path class="st0" d="M89.3,38.1l7.2-7.2c1.2-1.2,1.2-3.2,0-4.5L93.1,23c-1.2-1.2-3.2-1.2-4.5,0l-7.2,7.2L74.2,23
			c-1.2-1.2-3.2-1.2-4.5,0l-3.4,3.4c-1.2,1.2-1.2,3.2,0,4.5l7.2,7.2l-7.2,7.2c-1.2,1.2-1.2,3.2,0,4.5l3.4,3.4c1.2,1.2,3.2,1.2,4.5,0
			l7.2-7.2l7.2,7.2c1.2,1.2,3.2,1.2,4.5,0l3.4-3.4c1.2-1.2,1.2-3.2,0-4.5L89.3,38.1z"/>
	</g>
</g>
</svg>
